<svg version="1.2" id="svgAmarilla1" xmlns="http://www.w3.org/2000/svg" width="342" height="779">

	<path id="2.7" cell="yellow" class="lotesPath" d="m225 648h95v82h-95z"/>
	<path id="2.6" cell="yellow" class="lotesPath" d="m225 570h95v82h-95z"/>
	<path id="2.5" cell="yellow" class="lotesPath" d="m224 491h95v82h-95z"/>
	<path id="2.4" cell="yellow" class="lotesPath" d="m224 411h95v82h-95z"/>
	<path id="2.3" cell="yellow" class="lotesPath" d="m225 332h95v82h-95z"/>
	<path id="2.2" cell="yellow" class="lotesPath" d="m225 253h95v82h-95z"/>
	<path id="1.3" cell="yellow" class="lotesPath" d="m179 492.9l47-0.9-2 235.9-38-1c0 0-3-32 8-68-23-54-15-166-15-166z"/>
	<path id="2.1" cell="yellow" class="lotesPath" d="m223 119.9l98 53.1v82h-95z"/>
	<path id="1.2" cell="yellow" class="lotesPath" d="m133 253.9h91l-1 238.2-47 0.9 9-34.1-57-9.9 13-93.1z"/>
	<path id="1.1" cell="yellow" class="lotesPath" d="m100 45.9l123 70 3 137.2h-95l-2-12.2-33-10-19-56-37-12z"/>
</svg>